<svg id="Calque_1" data-name="Calque 1" xmlns="http://www.w3.org/2000/svg" viewBox="0 0 210.33 210.33"><defs><style>.cls-1{fill:#e8eff7;}.cls-2{fill:#1c6e86;}.cls-3{fill:#fff;}</style></defs><title>logonegatif</title><circle class="cls-1" cx="105.16" cy="105.16" r="105.16"/><path class="cls-2" d="M111.73,51.08h-1L117,36.31l-1.52-1.52-4.85,12V27.66H108.2V47.14s-5.87-14.73-6.07-14.78a16.35,16.35,0,0,0-2,.71c-.19,0,6.75,16.81,7.21,17.92h-1.08l-47.1,105.8H92.52L84,147.67l25.25-32.18,25.25,32.18-8.36,9,.06.15h33.85Z" transform="translate(-6.29 -6.84)"/><polygon class="cls-1" points="86.23 149.94 102.97 108.66 77.73 140.84 86.23 149.94"/><polygon class="cls-1" points="102.97 108.66 119.72 149.94 119.86 149.79 128.22 140.84 102.97 108.66"/><polygon class="cls-3" points="86.23 149.94 102.97 108.66 119.86 149.79 86.23 149.94"/></svg>